<?xml version="1.0" encoding="UTF-8"?>
<svg width="715px" height="201px" viewBox="0 0 715 201" version="1.1" xmlns="http://www.w3.org/2000/svg" xmlns:xlink="http://www.w3.org/1999/xlink">
    <!-- Generator: Sketch 64 (93537) - https://sketch.com -->
    <title>xcoreLogo v2</title>
    <desc>Created with Sketch.</desc>
    <defs>
        <linearGradient x1="70.7678118%" y1="-29.0666038%" x2="92.5874829%" y2="93.7540696%" id="linearGradient-1">
            <stop stop-color="#3023AE" offset="0%"></stop>
            <stop stop-color="#C86DD7" offset="100%"></stop>
        </linearGradient>
    </defs>
    <g id="Xcore" stroke="none" stroke-width="1" fill="none" fill-rule="evenodd">
        <g id="xcoreLogo-v2" transform="translate(0.000000, -18.000000)">
            <g id="Group" transform="translate(0.000000, 18.000000)">
                <circle id="Oval" fill="url(#linearGradient-1)" cx="100.5" cy="100.5" r="100.5"></circle>
                <path d="M150.267027,49.8578644 C158.077513,57.6683502 158.077513,70.3316498 150.267027,78.1421356 L128.346717,100.062446 L150.267027,121.982756 C158.077513,129.793242 158.077513,142.456541 150.267027,150.267027 C142.456541,158.077513 129.793242,158.077513 121.982756,150.267027 L100.061739,128.34601 L78.1421356,150.267027 C70.3316498,158.077513 57.6683502,158.077513 49.8578644,150.267027 C42.0473785,142.456541 42.0473785,129.793242 49.8578644,121.982756 L71.7774675,100.061739 L49.8578644,78.1421356 C42.0473785,70.3316498 42.0473785,57.6683502 49.8578644,49.8578644 C57.6683502,42.0473785 70.3316498,42.0473785 78.1421356,49.8578644 L100.062446,71.7781746 L121.982756,49.8578644 C129.793242,42.0473785 142.456541,42.0473785 150.267027,49.8578644 Z M110.093687,111.951515 C104.130868,117.914333 96.3715143,117.291825 89.6119473,110.532257 C82.8523802,103.77269 82.2105582,95.9940232 88.1733769,90.0312045 L91.0003091,87.2042724 C96.9940232,81.2105582 104.77269,81.8523802 111.532257,88.6119473 C118.291825,95.3715143 118.898886,103.146316 112.920619,109.124583 L110.093687,111.951515 Z" id="Shape" fill="#FFFFFF"></path>
            </g>
            <path d="M259.494141,190 L297.482422,133.847656 L298.166016,133.847656 L335.568359,190 L356.662109,190 L309.103516,120.175781 L309.103516,119.589844 L357.736328,49.0820312 L337.716797,49.0820312 L299.630859,105.722656 L298.947266,105.722656 L261.349609,49.0820312 L240.158203,49.0820312 L287.521484,118.710938 L287.521484,119.394531 L239.572266,190 L259.494141,190 Z M408.224609,191.757812 C431.271484,191.757812 448.263672,177.5 450.900391,157.285156 L434.201172,157.285156 C431.271484,169.492188 422.189453,176.816406 408.322266,176.816406 C390.744141,176.816406 378.634766,162.851562 378.634766,139.21875 C378.634766,116.171875 390.548828,101.621094 408.126953,101.621094 C423.068359,101.621094 431.662109,110.703125 434.103516,121.738281 L450.705078,121.738281 C448.556641,103.476562 433.419922,86.6796875 408.029297,86.6796875 C380.001953,86.6796875 361.349609,107.1875 361.349609,139.21875 C361.349609,171.933594 380.099609,191.757812 408.224609,191.757812 Z M508.615234,191.757812 C536.642578,191.757812 555.587891,171.542969 555.587891,139.21875 C555.587891,106.796875 536.642578,86.6796875 508.615234,86.6796875 C480.490234,86.6796875 461.544922,106.796875 461.544922,139.21875 C461.544922,171.542969 480.490234,191.757812 508.615234,191.757812 Z M508.615234,176.816406 C490.646484,176.816406 478.830078,163.144531 478.830078,139.21875 C478.830078,115.292969 490.646484,101.621094 508.615234,101.621094 C526.583984,101.621094 538.302734,115.292969 538.302734,139.21875 C538.302734,163.144531 526.583984,176.816406 508.615234,176.816406 Z M589.669922,190 L589.669922,126.71875 C589.669922,112.363281 598.263672,102.890625 611.447266,102.890625 C615.548828,102.890625 619.162109,103.378906 620.529297,103.867188 L620.529297,87.3632812 C619.162109,87.1679688 616.623047,86.6796875 613.693359,86.6796875 C601.779297,86.6796875 592.404297,93.8085938 589.083984,105.039062 L588.693359,105.039062 L588.693359,88.4375 L572.677734,88.4375 L572.677734,190 L589.669922,190 Z M671.212891,191.757812 C693.380859,191.757812 710.568359,178.671875 713.498047,160.898438 L696.798828,160.898438 C693.966797,170.46875 684.494141,177.011719 671.603516,177.011719 C653.341797,177.011719 641.916016,164.21875 641.916016,144.785156 L641.916016,143.808594 L714.767578,143.808594 L714.767578,137.363281 C714.767578,106.601562 697.873047,86.6796875 670.431641,86.6796875 C642.404297,86.6796875 624.435547,108.066406 624.435547,139.609375 C624.435547,171.542969 642.111328,191.757812 671.212891,191.757812 Z M697.189453,130.527344 L642.013672,130.527344 C643.087891,113.632812 654.220703,101.425781 670.138672,101.425781 C686.154297,101.425781 696.798828,113.535156 697.189453,130.527344 Z" id="Xcore" fill="#22263F" fill-rule="nonzero"></path>
        </g>
    </g>
</svg>