<?xml version="1.0" encoding="UTF-8"?>
<svg width="716px" height="201px" viewBox="0 0 716 201" version="1.1" xmlns="http://www.w3.org/2000/svg" xmlns:xlink="http://www.w3.org/1999/xlink">
    <title>xcorelogo</title>
    <defs>
        <linearGradient x1="70.7678118%" y1="-29.0666038%" x2="92.5874829%" y2="93.7540696%" id="linearGradient-1">
            <stop stop-color="#3023AE" offset="0%"></stop>
            <stop stop-color="#C86DD7" offset="100%"></stop>
        </linearGradient>
    </defs>
    <g id="Xcore" stroke="none" stroke-width="1" fill="none" fill-rule="evenodd">
        <g id="xcorelogo">
            <g id="shape">
                <circle id="Oval" fill="url(#linearGradient-1)" cx="100.5" cy="100.5" r="100.5"></circle>
                <path d="M150.267027,49.8578644 C158.077513,57.6683502 158.077513,70.3316498 150.267027,78.1421356 L128.346717,100.062446 L150.267027,121.982756 C158.077513,129.793242 158.077513,142.456541 150.267027,150.267027 C142.456541,158.077513 129.793242,158.077513 121.982756,150.267027 L100.061739,128.34601 L78.1421356,150.267027 C70.3316498,158.077513 57.6683502,158.077513 49.8578644,150.267027 C42.0473785,142.456541 42.0473785,129.793242 49.8578644,121.982756 L71.7774675,100.061739 L49.8578644,78.1421356 C42.0473785,70.3316498 42.0473785,57.6683502 49.8578644,49.8578644 C57.6683502,42.0473785 70.3316498,42.0473785 78.1421356,49.8578644 L100.062446,71.7781746 L121.982756,49.8578644 C129.793242,42.0473785 142.456541,42.0473785 150.267027,49.8578644 Z M110.093687,111.951515 C104.130868,117.914333 96.3715143,117.291825 89.6119473,110.532257 C82.8523802,103.77269 82.2105582,95.9940232 88.1733769,90.0312045 L91.0003091,87.2042724 C96.9940232,81.2105582 104.77269,81.8523802 111.532257,88.6119473 C118.291825,95.3715143 118.898886,103.146316 112.920619,109.124583 L110.093687,111.951515 Z" id="Xmark" fill="#FFFFFF"></path>
            </g>
            <path d="M260.494141,172 L298.482422,115.847656 L299.166016,115.847656 L336.568359,172 L357.662109,172 L310.103516,102.175781 L310.103516,101.589844 L358.736328,31.0820312 L338.716797,31.0820312 L300.630859,87.7226562 L299.947266,87.7226562 L262.349609,31.0820312 L241.158203,31.0820312 L288.521484,100.710938 L288.521484,101.394531 L240.572266,172 L260.494141,172 Z M409.224609,173.757812 C432.271484,173.757812 449.263672,159.5 451.900391,139.285156 L435.201172,139.285156 C432.271484,151.492188 423.189453,158.816406 409.322266,158.816406 C391.744141,158.816406 379.634766,144.851562 379.634766,121.21875 C379.634766,98.171875 391.548828,83.6210938 409.126953,83.6210938 C424.068359,83.6210938 432.662109,92.703125 435.103516,103.738281 L451.705078,103.738281 C449.556641,85.4765625 434.419922,68.6796875 409.029297,68.6796875 C381.001953,68.6796875 362.349609,89.1875 362.349609,121.21875 C362.349609,153.933594 381.099609,173.757812 409.224609,173.757812 Z M509.615234,173.757812 C537.642578,173.757812 556.587891,153.542969 556.587891,121.21875 C556.587891,88.796875 537.642578,68.6796875 509.615234,68.6796875 C481.490234,68.6796875 462.544922,88.796875 462.544922,121.21875 C462.544922,153.542969 481.490234,173.757812 509.615234,173.757812 Z M509.615234,158.816406 C491.646484,158.816406 479.830078,145.144531 479.830078,121.21875 C479.830078,97.2929688 491.646484,83.6210938 509.615234,83.6210938 C527.583984,83.6210938 539.302734,97.2929688 539.302734,121.21875 C539.302734,145.144531 527.583984,158.816406 509.615234,158.816406 Z M590.669922,172 L590.669922,108.71875 C590.669922,94.3632812 599.263672,84.890625 612.447266,84.890625 C616.548828,84.890625 620.162109,85.3789062 621.529297,85.8671875 L621.529297,69.3632812 C620.162109,69.1679688 617.623047,68.6796875 614.693359,68.6796875 C602.779297,68.6796875 593.404297,75.8085938 590.083984,87.0390625 L589.693359,87.0390625 L589.693359,70.4375 L573.677734,70.4375 L573.677734,172 L590.669922,172 Z M672.212891,173.757812 C694.380859,173.757812 711.568359,160.671875 714.498047,142.898438 L697.798828,142.898438 C694.966797,152.46875 685.494141,159.011719 672.603516,159.011719 C654.341797,159.011719 642.916016,146.21875 642.916016,126.785156 L642.916016,125.808594 L715.767578,125.808594 L715.767578,119.363281 C715.767578,88.6015625 698.873047,68.6796875 671.431641,68.6796875 C643.404297,68.6796875 625.435547,90.0664062 625.435547,121.609375 C625.435547,153.542969 643.111328,173.757812 672.212891,173.757812 Z M698.189453,112.527344 L643.013672,112.527344 C644.087891,95.6328125 655.220703,83.4257812 671.138672,83.4257812 C687.154297,83.4257812 697.798828,95.5351562 698.189453,112.527344 Z" id="word" fill="#000000" fill-rule="nonzero"></path>
        </g>
    </g>
</svg>