<?xml version="1.0" encoding="UTF-8"?>
<svg width="457px" height="305px" viewBox="0 0 457 305" version="1.1" xmlns="http://www.w3.org/2000/svg" xmlns:xlink="http://www.w3.org/1999/xlink">
    <!-- Generator: Sketch 50.2 (55047) - http://www.bohemiancoding.com/sketch -->
    <title>xcoreLogo</title>
    <desc>Created with Sketch.</desc>
    <defs>
        <linearGradient x1="-46.6683755%" y1="38.6251027%" x2="155.886595%" y2="67.2446311%" id="linearGradient-1">
            <stop stop-color="#3023AE" offset="0%"></stop>
            <stop stop-color="#C86DD7" offset="100%"></stop>
        </linearGradient>
        <path d="M81.6328125,268.898438 L50.484375,317.132812 L81.140625,364.875 L62.5078125,364.875 L40.5,329.578125 L39.7265625,329.578125 L17.578125,364.875 L0,364.875 L30.515625,316.5 L0.3515625,268.898438 L19.265625,268.898438 L41.1328125,304.546875 L41.90625,304.546875 L63.5625,268.898438 L81.6328125,268.898438 Z M108.140625,310.875 L108.140625,323.390625 C108.140625,341.953125 116.578125,352.359375 131.273438,352.359375 C143.015625,352.359375 150.960938,345.398438 152.015625,335.414062 L167.554688,335.414062 L167.554688,336.75 C166.359375,354.398438 151.3125,366.773438 131.203125,366.773438 C106.101562,366.773438 91.96875,350.601562 91.96875,323.390625 L91.96875,310.734375 C91.96875,283.59375 106.382812,267 131.203125,267 C151.382812,267 166.429688,279.796875 167.554688,298.21875 L167.554688,299.484375 L152.015625,299.484375 C150.960938,289.007812 142.804688,281.414062 131.273438,281.414062 C116.71875,281.414062 108.140625,292.242188 108.140625,310.875 Z M286,323.518675 C286,350.72093 266.881057,367 236.044053,367 C205.207048,367 186,350.72093 186,323.518675 L186,310.622269 C186,283.27907 205.207048,267 236.044053,267 C266.881057,267 286,283.349542 286,310.622269 L286,323.518675 Z M321,315.695312 L339.28125,315.695312 C351.023438,315.695312 357.84375,310.28125 357.84375,299.734375 C357.84375,288.976562 350.8125,283 339.703125,283 L321,283 L321,315.695312 Z M342.59375,268.898438 C362.773438,268.898438 374.9375,280.640625 374.9375,298.710938 C374.9375,312.421875 367.0625,321.984375 357.289062,325.570312 L376.695312,364.875 L358.765625,364.875 L341.539062,328.3125 L321.640625,328.3125 L321.640625,364.875 L305.890625,364.875 L305.890625,268.898438 L342.59375,268.898438 Z M456.640625,350.882812 L456.640625,364.875 L396.734375,364.875 L396.734375,268.898438 L456.640625,268.898438 L456.640625,282.890625 L412.625,282.890625 L412.625,309.539062 L454.039062,309.539062 L454.039062,322.828125 L412.625,322.828125 L412.625,350.882812 L456.640625,350.882812 Z" id="path-2"></path>
        <linearGradient x1="70.7678118%" y1="-29.0666038%" x2="92.5874829%" y2="93.7540696%" id="linearGradient-3">
            <stop stop-color="#3023AE" offset="0%"></stop>
            <stop stop-color="#C86DD7" offset="100%"></stop>
        </linearGradient>
    </defs>
    <g id="Xcore" stroke="none" stroke-width="1" fill="none" fill-rule="evenodd">
        <g id="xcoreLogo" transform="translate(0.000000, -62.000000)">
            <g id="Typeface">
                <use fill="#000000" xlink:href="#path-2"></use>
                <use fill="url(#linearGradient-1)" xlink:href="#path-2"></use>
            </g>
            <path d="M256.128463,169.421356 L256.128463,213.421356 C256.128463,228.885329 243.592436,241.421356 228.128463,241.421356 C212.66449,241.421356 200.128463,228.885329 200.128463,213.421356 L200.128463,169.421356 L156.128463,169.421356 C140.66449,169.421356 128.128463,156.885329 128.128463,141.421356 C128.128463,125.957383 140.66449,113.421356 156.128463,113.421356 L200.128463,113.421356 L200.128463,69.4213562 C200.128463,53.9573832 212.66449,41.4213562 228.128463,41.4213562 C243.592436,41.4213562 256.128463,53.9573832 256.128463,69.4213562 L256.128463,113.421356 L300.128463,113.421356 C315.592436,113.421356 328.128463,125.957383 328.128463,141.421356 C328.128463,156.885329 315.592436,169.421356 300.128463,169.421356 L256.128463,169.421356 Z M250.128463,144.289573 C250.128463,156.258566 241.716128,163.421356 228.147846,163.421356 C214.579564,163.421356 206.128463,156.258566 206.128463,144.289573 L206.128463,138.615155 C206.128463,126.584147 214.579564,119.421356 228.147846,119.421356 C241.716128,119.421356 250.128463,126.615155 250.128463,138.615155 L250.128463,144.289573 Z" id="Combined-Shape" fill="url(#linearGradient-3)" transform="translate(228.128463, 141.421356) rotate(45.000000) translate(-228.128463, -141.421356) "></path>
        </g>
    </g>
</svg>